<mxfile host="app.diagrams.net" agent="Mozilla/5.0 (Windows NT 10.0; Win64; x64) AppleWebKit/537.36 (KHTML, like Gecko) Chrome/133.0.0.0 Safari/537.36" version="26.0.16">
  <diagram name="Page-1" id="e7e014a7-5840-1c2e-5031-d8a46d1fe8dd">
    <mxGraphModel grid="1" page="1" gridSize="10" guides="1" tooltips="1" connect="1" arrows="1" fold="1" pageScale="1" pageWidth="1169" pageHeight="826" background="none" math="0" shadow="0">
      <root>
        <mxCell id="0" />
        <mxCell id="1" parent="0" />
        <mxCell id="2BfxS6TE-HqiaOgssZ8z-41" value="Admin" style="swimlane;whiteSpace=wrap" vertex="1" parent="1">
          <mxGeometry x="170" y="60" width="300" height="690" as="geometry" />
        </mxCell>
        <mxCell id="2BfxS6TE-HqiaOgssZ8z-42" value="" style="ellipse;shape=startState;fillColor=#000000;strokeColor=#ff0000;" vertex="1" parent="2BfxS6TE-HqiaOgssZ8z-41">
          <mxGeometry x="100" y="42" width="30" height="30" as="geometry" />
        </mxCell>
        <mxCell id="2BfxS6TE-HqiaOgssZ8z-43" value="" style="edgeStyle=elbowEdgeStyle;elbow=vertical;verticalAlign=bottom;endArrow=open;endSize=8;strokeColor=#FF0000;endFill=1;rounded=0;entryX=0.5;entryY=0;entryDx=0;entryDy=0;" edge="1" parent="2BfxS6TE-HqiaOgssZ8z-41" target="2BfxS6TE-HqiaOgssZ8z-44">
          <mxGeometry x="100" y="40" as="geometry">
            <mxPoint x="114.5" y="110" as="targetPoint" />
            <mxPoint x="115.5" y="72" as="sourcePoint" />
            <Array as="points">
              <mxPoint x="95" y="98" />
            </Array>
          </mxGeometry>
        </mxCell>
        <mxCell id="2BfxS6TE-HqiaOgssZ8z-44" value="Chọn chức năng quản lý hóa đơn" style="rounded=1;whiteSpace=wrap;html=1;" vertex="1" parent="2BfxS6TE-HqiaOgssZ8z-41">
          <mxGeometry x="55" y="112" width="120" height="60" as="geometry" />
        </mxCell>
        <mxCell id="2BfxS6TE-HqiaOgssZ8z-45" value="Yêu cầu đăng nhập" style="rounded=1;whiteSpace=wrap;html=1;" vertex="1" parent="2BfxS6TE-HqiaOgssZ8z-41">
          <mxGeometry x="55" y="192" width="120" height="60" as="geometry" />
        </mxCell>
        <mxCell id="2BfxS6TE-HqiaOgssZ8z-46" value="Lựa chọn chức năng" style="rounded=1;whiteSpace=wrap;html=1;" vertex="1" parent="2BfxS6TE-HqiaOgssZ8z-41">
          <mxGeometry x="55" y="280" width="120" height="60" as="geometry" />
        </mxCell>
        <mxCell id="2BfxS6TE-HqiaOgssZ8z-47" value="" style="endArrow=open;strokeColor=#FF0000;endFill=1;rounded=0;exitX=0.5;exitY=1;exitDx=0;exitDy=0;entryX=0.5;entryY=0;entryDx=0;entryDy=0;entryPerimeter=0;" edge="1" parent="2BfxS6TE-HqiaOgssZ8z-41" source="2BfxS6TE-HqiaOgssZ8z-46" target="2BfxS6TE-HqiaOgssZ8z-48">
          <mxGeometry relative="1" as="geometry">
            <mxPoint x="100" y="395" as="sourcePoint" />
            <mxPoint x="60" y="370" as="targetPoint" />
            <Array as="points" />
          </mxGeometry>
        </mxCell>
        <mxCell id="2BfxS6TE-HqiaOgssZ8z-48" value="Chọn chức năng cập nhật hóa đơn" style="rounded=1;whiteSpace=wrap;html=1;" vertex="1" parent="2BfxS6TE-HqiaOgssZ8z-41">
          <mxGeometry x="10" y="363" width="120" height="60" as="geometry" />
        </mxCell>
        <mxCell id="2BfxS6TE-HqiaOgssZ8z-49" value="" style="endArrow=open;strokeColor=#FF0000;endFill=1;rounded=0;exitX=1;exitY=0.5;exitDx=0;exitDy=0;entryX=0;entryY=0.5;entryDx=0;entryDy=0;" edge="1" parent="2BfxS6TE-HqiaOgssZ8z-41" source="2BfxS6TE-HqiaOgssZ8z-48" target="2BfxS6TE-HqiaOgssZ8z-50">
          <mxGeometry relative="1" as="geometry">
            <mxPoint x="205" y="400" as="sourcePoint" />
            <mxPoint x="180" y="393" as="targetPoint" />
            <Array as="points" />
          </mxGeometry>
        </mxCell>
        <mxCell id="2BfxS6TE-HqiaOgssZ8z-50" value="Nhập thông tin hóa đơn" style="rounded=1;whiteSpace=wrap;html=1;" vertex="1" parent="2BfxS6TE-HqiaOgssZ8z-41">
          <mxGeometry x="160" y="363" width="120" height="60" as="geometry" />
        </mxCell>
        <mxCell id="2BfxS6TE-HqiaOgssZ8z-51" value="Thông báo lỗi, yêu cầu chỉnh sửa" style="rounded=1;whiteSpace=wrap;html=1;" vertex="1" parent="2BfxS6TE-HqiaOgssZ8z-41">
          <mxGeometry x="160" y="470" width="120" height="60" as="geometry" />
        </mxCell>
        <mxCell id="2BfxS6TE-HqiaOgssZ8z-52" value="" style="endArrow=open;strokeColor=#FF0000;endFill=1;rounded=0;exitX=0.5;exitY=0;exitDx=0;exitDy=0;entryX=0.5;entryY=1;entryDx=0;entryDy=0;" edge="1" parent="2BfxS6TE-HqiaOgssZ8z-41" source="2BfxS6TE-HqiaOgssZ8z-51" target="2BfxS6TE-HqiaOgssZ8z-50">
          <mxGeometry relative="1" as="geometry">
            <mxPoint x="290" y="403" as="sourcePoint" />
            <mxPoint x="410" y="330" as="targetPoint" />
            <Array as="points" />
          </mxGeometry>
        </mxCell>
        <mxCell id="Md63ulKhBENSFqzugvEg-3" value="Thông báo cập nhật thành công" style="rounded=1;whiteSpace=wrap;html=1;" vertex="1" parent="2BfxS6TE-HqiaOgssZ8z-41">
          <mxGeometry x="55" y="550" width="120" height="60" as="geometry" />
        </mxCell>
        <mxCell id="Md63ulKhBENSFqzugvEg-4" value="" style="ellipse;html=1;shape=endState;fillColor=#000000;strokeColor=#ff0000;" vertex="1" parent="2BfxS6TE-HqiaOgssZ8z-41">
          <mxGeometry x="100" y="650" width="30" height="30" as="geometry" />
        </mxCell>
        <mxCell id="Md63ulKhBENSFqzugvEg-5" value="" style="endArrow=open;strokeColor=#FF0000;endFill=1;rounded=0;exitX=0.5;exitY=1;exitDx=0;exitDy=0;entryX=0.5;entryY=0;entryDx=0;entryDy=0;" edge="1" parent="2BfxS6TE-HqiaOgssZ8z-41" source="Md63ulKhBENSFqzugvEg-3" target="Md63ulKhBENSFqzugvEg-4">
          <mxGeometry relative="1" as="geometry">
            <mxPoint x="90" y="627" as="sourcePoint" />
            <mxPoint x="45" y="650" as="targetPoint" />
            <Array as="points" />
          </mxGeometry>
        </mxCell>
        <mxCell id="2BfxS6TE-HqiaOgssZ8z-53" value="Hệ thống" style="swimlane;whiteSpace=wrap;startSize=23;" vertex="1" parent="1">
          <mxGeometry x="470" y="60" width="285" height="690" as="geometry" />
        </mxCell>
        <mxCell id="2BfxS6TE-HqiaOgssZ8z-54" value="" style="endArrow=open;strokeColor=#FF0000;endFill=1;rounded=0;exitX=0.5;exitY=1;exitDx=0;exitDy=0;entryX=0.5;entryY=0;entryDx=0;entryDy=0;" edge="1" parent="2BfxS6TE-HqiaOgssZ8z-53" source="2BfxS6TE-HqiaOgssZ8z-55" target="2BfxS6TE-HqiaOgssZ8z-56">
          <mxGeometry relative="1" as="geometry">
            <mxPoint x="126.10000000000001" y="121.26000000000005" as="sourcePoint" />
            <mxPoint x="129.9997413674507" y="172.00012931627464" as="targetPoint" />
            <Array as="points" />
          </mxGeometry>
        </mxCell>
        <mxCell id="2BfxS6TE-HqiaOgssZ8z-55" value="Kiểm tra đăng nhập" style="rounded=1;whiteSpace=wrap;html=1;" vertex="1" parent="2BfxS6TE-HqiaOgssZ8z-53">
          <mxGeometry x="95" y="92" width="120" height="60" as="geometry" />
        </mxCell>
        <mxCell id="2BfxS6TE-HqiaOgssZ8z-56" value="" style="rhombus;fillColor=#ffffc0;strokeColor=#ff0000;" vertex="1" parent="2BfxS6TE-HqiaOgssZ8z-53">
          <mxGeometry x="115" y="212" width="80" height="48" as="geometry" />
        </mxCell>
        <mxCell id="2BfxS6TE-HqiaOgssZ8z-57" value="" style="endArrow=classic;html=1;rounded=0;dashed=1;entryX=0.91;entryY=-0.01;entryDx=0;entryDy=0;entryPerimeter=0;exitX=0.623;exitY=1.02;exitDx=0;exitDy=0;exitPerimeter=0;fillColor=#d80073;strokeColor=light-dark(#ff0000, #FFA9E0);" edge="1" parent="2BfxS6TE-HqiaOgssZ8z-53" source="2BfxS6TE-HqiaOgssZ8z-58" target="2BfxS6TE-HqiaOgssZ8z-55">
          <mxGeometry width="50" height="50" relative="1" as="geometry">
            <mxPoint x="215" y="62" as="sourcePoint" />
            <mxPoint x="210" y="32" as="targetPoint" />
          </mxGeometry>
        </mxCell>
        <mxCell id="2BfxS6TE-HqiaOgssZ8z-58" value="Tài khoản" style="rounded=0;whiteSpace=wrap;html=1;" vertex="1" parent="2BfxS6TE-HqiaOgssZ8z-53">
          <mxGeometry x="175" y="32" width="70" height="30" as="geometry" />
        </mxCell>
        <mxCell id="2BfxS6TE-HqiaOgssZ8z-59" value="" style="rhombus;fillColor=#ffffc0;strokeColor=#ff0000;" vertex="1" parent="2BfxS6TE-HqiaOgssZ8z-53">
          <mxGeometry x="120" y="390" width="80" height="48" as="geometry" />
        </mxCell>
        <mxCell id="2BfxS6TE-HqiaOgssZ8z-60" value="" style="endArrow=open;strokeColor=#FF0000;endFill=1;rounded=0;exitX=0.5;exitY=1;exitDx=0;exitDy=0;entryX=0.5;entryY=0;entryDx=0;entryDy=0;" edge="1" parent="2BfxS6TE-HqiaOgssZ8z-53" source="2BfxS6TE-HqiaOgssZ8z-59" target="2BfxS6TE-HqiaOgssZ8z-64">
          <mxGeometry relative="1" as="geometry">
            <mxPoint x="159.5" y="458" as="sourcePoint" />
            <mxPoint x="159.5" y="510" as="targetPoint" />
            <Array as="points" />
          </mxGeometry>
        </mxCell>
        <mxCell id="2BfxS6TE-HqiaOgssZ8z-61" value="Đúng" style="edgeLabel;html=1;align=center;verticalAlign=middle;resizable=0;points=[];" connectable="0" vertex="1" parent="2BfxS6TE-HqiaOgssZ8z-60">
          <mxGeometry x="-0.064" y="2" relative="1" as="geometry">
            <mxPoint as="offset" />
          </mxGeometry>
        </mxCell>
        <mxCell id="2BfxS6TE-HqiaOgssZ8z-62" value="Kiểm tra thông tin hóa đơn" style="rounded=1;whiteSpace=wrap;html=1;" vertex="1" parent="2BfxS6TE-HqiaOgssZ8z-53">
          <mxGeometry x="100" y="290" width="120" height="60" as="geometry" />
        </mxCell>
        <mxCell id="2BfxS6TE-HqiaOgssZ8z-63" value="" style="endArrow=open;strokeColor=#FF0000;endFill=1;rounded=0;entryX=0.5;entryY=0;entryDx=0;entryDy=0;" edge="1" parent="2BfxS6TE-HqiaOgssZ8z-53" source="2BfxS6TE-HqiaOgssZ8z-62" target="2BfxS6TE-HqiaOgssZ8z-59">
          <mxGeometry relative="1" as="geometry">
            <mxPoint x="-10" y="403" as="sourcePoint" />
            <mxPoint x="110" y="330" as="targetPoint" />
            <Array as="points" />
          </mxGeometry>
        </mxCell>
        <mxCell id="2BfxS6TE-HqiaOgssZ8z-64" value="Tiến hành cập nhật lại thông tin" style="rounded=1;whiteSpace=wrap;html=1;" vertex="1" parent="2BfxS6TE-HqiaOgssZ8z-53">
          <mxGeometry x="100" y="470" width="120" height="60" as="geometry" />
        </mxCell>
        <mxCell id="2BfxS6TE-HqiaOgssZ8z-65" value="" style="endArrow=open;strokeColor=#FF0000;endFill=1;rounded=0;exitX=0.5;exitY=1;exitDx=0;exitDy=0;entryX=0.5;entryY=0;entryDx=0;entryDy=0;" edge="1" parent="2BfxS6TE-HqiaOgssZ8z-53" source="2BfxS6TE-HqiaOgssZ8z-64" target="Md63ulKhBENSFqzugvEg-1">
          <mxGeometry relative="1" as="geometry">
            <mxPoint x="30" y="643" as="sourcePoint" />
            <mxPoint x="160" y="560" as="targetPoint" />
            <Array as="points" />
          </mxGeometry>
        </mxCell>
        <mxCell id="2BfxS6TE-HqiaOgssZ8z-66" value="Đơn hàng" style="rounded=0;whiteSpace=wrap;html=1;" vertex="1" parent="2BfxS6TE-HqiaOgssZ8z-53">
          <mxGeometry x="210" y="250" width="70" height="30" as="geometry" />
        </mxCell>
        <mxCell id="2BfxS6TE-HqiaOgssZ8z-67" value="" style="endArrow=classic;html=1;rounded=0;dashed=1;entryX=1;entryY=0.3;entryDx=0;entryDy=0;entryPerimeter=0;exitX=0.623;exitY=1.02;exitDx=0;exitDy=0;exitPerimeter=0;fillColor=#d80073;strokeColor=light-dark(#ff0000, #FFA9E0);" edge="1" parent="2BfxS6TE-HqiaOgssZ8z-53" target="2BfxS6TE-HqiaOgssZ8z-62">
          <mxGeometry width="50" height="50" relative="1" as="geometry">
            <mxPoint x="245" y="280" as="sourcePoint" />
            <mxPoint x="230" y="308" as="targetPoint" />
          </mxGeometry>
        </mxCell>
        <mxCell id="Md63ulKhBENSFqzugvEg-1" value="Xác nhân cập nhật" style="rounded=1;whiteSpace=wrap;html=1;" vertex="1" parent="2BfxS6TE-HqiaOgssZ8z-53">
          <mxGeometry x="100" y="550" width="120" height="60" as="geometry" />
        </mxCell>
        <mxCell id="2BfxS6TE-HqiaOgssZ8z-69" value="" style="endArrow=open;strokeColor=#FF0000;endFill=1;rounded=0;exitX=1;exitY=0.5;exitDx=0;exitDy=0;entryX=0.037;entryY=0.87;entryDx=0;entryDy=0;entryPerimeter=0;" edge="1" parent="1" source="2BfxS6TE-HqiaOgssZ8z-45" target="2BfxS6TE-HqiaOgssZ8z-55">
          <mxGeometry relative="1" as="geometry">
            <mxPoint x="350" y="410" as="sourcePoint" />
            <mxPoint x="350" y="470" as="targetPoint" />
            <Array as="points" />
          </mxGeometry>
        </mxCell>
        <mxCell id="2BfxS6TE-HqiaOgssZ8z-70" value="" style="endArrow=open;strokeColor=#FF0000;endFill=1;rounded=0;exitX=1;exitY=0.5;exitDx=0;exitDy=0;entryX=0;entryY=0.75;entryDx=0;entryDy=0;" edge="1" parent="1" source="2BfxS6TE-HqiaOgssZ8z-44" target="2BfxS6TE-HqiaOgssZ8z-55">
          <mxGeometry relative="1" as="geometry">
            <mxPoint x="370" y="380" as="sourcePoint" />
            <mxPoint x="574" y="262" as="targetPoint" />
            <Array as="points" />
          </mxGeometry>
        </mxCell>
        <mxCell id="2BfxS6TE-HqiaOgssZ8z-71" value="" style="endArrow=open;strokeColor=#FF0000;endFill=1;rounded=0;exitX=0;exitY=0.5;exitDx=0;exitDy=0;entryX=1;entryY=0.75;entryDx=0;entryDy=0;" edge="1" parent="1" source="2BfxS6TE-HqiaOgssZ8z-56" target="2BfxS6TE-HqiaOgssZ8z-45">
          <mxGeometry relative="1" as="geometry">
            <mxPoint x="619.5" y="400" as="sourcePoint" />
            <mxPoint x="360" y="388" as="targetPoint" />
          </mxGeometry>
        </mxCell>
        <mxCell id="2BfxS6TE-HqiaOgssZ8z-72" value="Sai" style="edgeLabel;html=1;align=center;verticalAlign=middle;resizable=0;points=[];" connectable="0" vertex="1" parent="2BfxS6TE-HqiaOgssZ8z-71">
          <mxGeometry x="0.0104" y="1" relative="1" as="geometry">
            <mxPoint as="offset" />
          </mxGeometry>
        </mxCell>
        <mxCell id="2BfxS6TE-HqiaOgssZ8z-73" value="" style="endArrow=open;strokeColor=#FF0000;endFill=1;rounded=0;exitX=0.5;exitY=1;exitDx=0;exitDy=0;entryX=1;entryY=0.5;entryDx=0;entryDy=0;" edge="1" parent="1" source="2BfxS6TE-HqiaOgssZ8z-56" target="2BfxS6TE-HqiaOgssZ8z-46">
          <mxGeometry relative="1" as="geometry">
            <mxPoint x="440" y="448" as="sourcePoint" />
            <mxPoint x="625" y="370" as="targetPoint" />
            <Array as="points" />
          </mxGeometry>
        </mxCell>
        <mxCell id="2BfxS6TE-HqiaOgssZ8z-74" value="Đúng" style="edgeLabel;html=1;align=center;verticalAlign=middle;resizable=0;points=[];" connectable="0" vertex="1" parent="2BfxS6TE-HqiaOgssZ8z-73">
          <mxGeometry x="-0.064" y="2" relative="1" as="geometry">
            <mxPoint as="offset" />
          </mxGeometry>
        </mxCell>
        <mxCell id="2BfxS6TE-HqiaOgssZ8z-75" value="" style="endArrow=open;strokeColor=#FF0000;endFill=1;rounded=0;exitX=1;exitY=0.5;exitDx=0;exitDy=0;entryX=0;entryY=0.5;entryDx=0;entryDy=0;" edge="1" parent="1" source="2BfxS6TE-HqiaOgssZ8z-50" target="2BfxS6TE-HqiaOgssZ8z-62">
          <mxGeometry relative="1" as="geometry">
            <mxPoint x="555" y="490" as="sourcePoint" />
            <mxPoint x="560" y="390" as="targetPoint" />
            <Array as="points" />
          </mxGeometry>
        </mxCell>
        <mxCell id="2BfxS6TE-HqiaOgssZ8z-76" value="" style="endArrow=open;strokeColor=#FF0000;endFill=1;rounded=0;exitX=0;exitY=0.5;exitDx=0;exitDy=0;entryX=1;entryY=0.5;entryDx=0;entryDy=0;" edge="1" parent="1" source="2BfxS6TE-HqiaOgssZ8z-59" target="2BfxS6TE-HqiaOgssZ8z-51">
          <mxGeometry relative="1" as="geometry">
            <mxPoint x="615" y="510" as="sourcePoint" />
            <mxPoint x="375" y="511" as="targetPoint" />
          </mxGeometry>
        </mxCell>
        <mxCell id="2BfxS6TE-HqiaOgssZ8z-77" value="Sai" style="edgeLabel;html=1;align=center;verticalAlign=middle;resizable=0;points=[];" connectable="0" vertex="1" parent="2BfxS6TE-HqiaOgssZ8z-76">
          <mxGeometry x="0.0104" y="1" relative="1" as="geometry">
            <mxPoint as="offset" />
          </mxGeometry>
        </mxCell>
        <mxCell id="Md63ulKhBENSFqzugvEg-2" value="" style="endArrow=open;strokeColor=#FF0000;endFill=1;rounded=0;exitX=0;exitY=0.5;exitDx=0;exitDy=0;entryX=1;entryY=0.5;entryDx=0;entryDy=0;" edge="1" parent="1" source="Md63ulKhBENSFqzugvEg-1" target="Md63ulKhBENSFqzugvEg-3">
          <mxGeometry relative="1" as="geometry">
            <mxPoint x="480" y="613" as="sourcePoint" />
            <mxPoint x="400" y="640" as="targetPoint" />
            <Array as="points" />
          </mxGeometry>
        </mxCell>
      </root>
    </mxGraphModel>
  </diagram>
</mxfile>
